# xmcd
#
# Track frame offsets:
#      150
#      13285
#      28682
#      40137
#      54300
#      71955
#      83762
#      101422
#      113975
#      126990
#      137935
#      148290
#      164980
#      181712
#      198330
#      212072
#      224925
#      241075
#      257097
#      269667
# 
# Disc length: 3836 seconds
#
# Revision: 3
# Processed by: cddbd v1.4PL0 Copyright (c) Steve Scherf et al.
#
# Submitted via: FreeRIP 1.21
#
DISCID=430efa14
DTITLE=Chitaozinho and Xororo - RAIZES SERTANEJAS
DYEAR=1900
DGENRE=country
TTITLE0=FIO DE CABELO
TTITLE1=GALOPEIRA
TTITLE2=POEMA SERTANEJO
TTITLE3=MATRIZ OU FILIAL
TTITLE4=AMANTE
TTITLE5=SAUDADE DE GOIAS
TTITLE6=AMOR PROIBIDO
TTITLE7=AMOR DA MINHA VIDA
TTITLE8=QUERIDA
TTITLE9=A FLOR DA NOITE
TTITLE10=60 DIAS APAIXONADO
TTITLE11=FOGAO DE LENHA
TTITLE12=ELA CHORA CHORA
TTITLE13=TERRA TOMBADA
TTITLE14=QUEM E VOCE
TTITLE15=ELA FEZ MINHA CABECA
TTITLE16=FAZ UM ANO
TTITLE17=CORACAO QUEBRADO
TTITLE18=PAGO DOBRADO
TTITLE19=MAJESTADE O SABIA
EXTD=
EXTT0=
EXTT1=
EXTT2=
EXTT3=
EXTT4=
EXTT5=
EXTT6=
EXTT7=
EXTT8=
EXTT9=
EXTT10=
EXTT11=
EXTT12=
EXTT13=
EXTT14=
EXTT15=
EXTT16=
EXTT17=
EXTT18=
EXTT19=
PLAYORDER=
